#N canvas 382 23 450 300 12;
#X obj 146 90 phasor~ 1000;
#X obj 146 138 *~;
#X obj 250 91 osc~ 0.5;
#X obj 250 115 *~ 0.5;
#X obj 250 139 +~ 0.5;
#X obj 146 162 hip~ 5;
#X obj 146 186 dac~;
#X obj 146 114 *~ 0.1;
#X obj 50 24 r FOO;
#X text 336 38 test_2;
#X floatatom 50 48 5 0 0 0 - - -;
#X connect 0 0 7 0;
#X connect 1 0 5 0;
#X connect 2 0 3 0;
#X connect 3 0 4 0;
#X connect 4 0 1 1;
#X connect 5 0 6 0;
#X connect 5 0 6 1;
#X connect 7 0 1 0;
#X connect 8 0 10 0;
#X connect 10 0 0 0;
